<?xml version="1.0" encoding="UTF-8"?>
<svg xmlns="http://www.w3.org/2000/svg" xmlns:xlink="http://www.w3.org/1999/xlink" version="1.1" viewBox="0 0 2200 2200">
  <defs>
    <style>
      .cls-1 {
        fill: url(#radial-gradient-3);
      }

      .cls-2 {
        fill: url(#radial-gradient-2);
      }

      .cls-3 {
        fill: url(#radial-gradient);
      }
    </style>
    <radialGradient id="radial-gradient" cx="742.5" cy="1462.4" fx="742.5" fy="1462.4" r="1257.3" gradientTransform="translate(0 2200) scale(1 -1)" gradientUnits="userSpaceOnUse">
      <stop offset="0" stop-color="#595959"/>
      <stop offset="1" stop-color="#000"/>
    </radialGradient>
    <radialGradient id="radial-gradient-2" cx="1024.1" cy="1500.5" fx="1024.1" fy="1500.5" r="480.6" gradientTransform="translate(0 2200) scale(1 -1)" gradientUnits="userSpaceOnUse">
      <stop offset="0" stop-color="#fff"/>
      <stop offset="1" stop-color="#d1d1d1"/>
    </radialGradient>
    <radialGradient id="radial-gradient-3" cx="965.8" cy="744.4" fx="965.8" fy="744.4" r="675" gradientTransform="translate(0 2200) scale(1 -1)" gradientUnits="userSpaceOnUse">
      <stop offset="0" stop-color="#fff"/>
      <stop offset="1" stop-color="#d1d1d1"/>
    </radialGradient>
  </defs>
  <!-- Generator: Adobe Illustrator 28.6.0, SVG Export Plug-In . SVG Version: 1.2.0 Build 709)  -->
  <g>
    <g id="Layer_1">
      <path class="cls-3" d="M1903,1100c0,215.5-84.9,411.2-223.1,555.4-146.2,152.6-351.9,247.6-579.9,247.6s-433.7-95-579.9-247.6c-138.2-144.2-223.1-339.9-223.1-555.4,0-443.5,359.5-803,803-803s803,359.5,803,803Z"/>
      <circle class="cls-2" cx="1100" cy="815" r="328"/>
      <path class="cls-1" d="M1679.9,1655.4c-146.2,152.6-351.9,247.6-579.9,247.6s-433.7-95-579.9-247.6c82.5-240.9,311-414.1,579.9-414.1s497.4,173.2,579.9,414.1Z"/>
    </g>
  </g>
</svg>